<mxfile host="Electron" modified="2024-03-12T17:40:15.285Z" agent="Mozilla/5.0 (Macintosh; Intel Mac OS X 10_15_7) AppleWebKit/537.36 (KHTML, like Gecko) draw.io/21.1.2 Chrome/106.0.5249.199 Electron/21.4.3 Safari/537.36" etag="O1WOFSy32v4Lj49LThzH" version="21.1.2" type="device">
  <diagram name="Page-1" id="gRb4Nd-JHRXPDlROZ7EG">
    <mxGraphModel dx="6210" dy="5200" grid="0" gridSize="10" guides="1" tooltips="1" connect="1" arrows="1" fold="1" page="1" pageScale="1" pageWidth="1700" pageHeight="1100" math="0" shadow="0">
      <root>
        <mxCell id="0" />
        <mxCell id="1" parent="0" />
        <mxCell id="hybEGSboPCoFTy7mBSYs-1" value="" style="ellipse;whiteSpace=wrap;html=1;aspect=fixed;strokeColor=none;fillColor=#000000;" parent="1" vertex="1">
          <mxGeometry x="636" y="-705" width="20" height="20" as="geometry" />
        </mxCell>
        <mxCell id="hybEGSboPCoFTy7mBSYs-4" value="" style="ellipse;whiteSpace=wrap;html=1;aspect=fixed;strokeColor=none;fillColor=#000000;" parent="1" vertex="1">
          <mxGeometry x="946" y="-815" width="20" height="20" as="geometry" />
        </mxCell>
        <mxCell id="hybEGSboPCoFTy7mBSYs-5" value="" style="ellipse;whiteSpace=wrap;html=1;aspect=fixed;strokeColor=none;fillColor=#000000;" parent="1" vertex="1">
          <mxGeometry x="816" y="-625" width="20" height="20" as="geometry" />
        </mxCell>
        <mxCell id="hybEGSboPCoFTy7mBSYs-6" value="" style="ellipse;whiteSpace=wrap;html=1;aspect=fixed;strokeColor=none;fillColor=#000000;" parent="1" vertex="1">
          <mxGeometry x="766" y="-745" width="20" height="20" as="geometry" />
        </mxCell>
        <mxCell id="hybEGSboPCoFTy7mBSYs-7" value="" style="ellipse;whiteSpace=wrap;html=1;aspect=fixed;strokeColor=none;fillColor=#000000;" parent="1" vertex="1">
          <mxGeometry x="976" y="-685" width="20" height="20" as="geometry" />
        </mxCell>
        <mxCell id="hybEGSboPCoFTy7mBSYs-8" value="" style="ellipse;whiteSpace=wrap;html=1;aspect=fixed;strokeColor=none;fillColor=#000000;" parent="1" vertex="1">
          <mxGeometry x="1056" y="-765" width="20" height="20" as="geometry" />
        </mxCell>
        <mxCell id="hybEGSboPCoFTy7mBSYs-9" value="" style="ellipse;whiteSpace=wrap;html=1;aspect=fixed;strokeColor=none;fillColor=#000000;" parent="1" vertex="1">
          <mxGeometry x="436" y="-815" width="20" height="20" as="geometry" />
        </mxCell>
        <mxCell id="hybEGSboPCoFTy7mBSYs-10" value="" style="ellipse;whiteSpace=wrap;html=1;aspect=fixed;strokeColor=none;fillColor=#000000;" parent="1" vertex="1">
          <mxGeometry x="486" y="-485" width="20" height="20" as="geometry" />
        </mxCell>
        <mxCell id="hybEGSboPCoFTy7mBSYs-11" value="" style="ellipse;whiteSpace=wrap;html=1;aspect=fixed;strokeColor=none;fillColor=#000000;" parent="1" vertex="1">
          <mxGeometry x="606" y="-545" width="20" height="20" as="geometry" />
        </mxCell>
        <mxCell id="hybEGSboPCoFTy7mBSYs-12" value="" style="ellipse;whiteSpace=wrap;html=1;aspect=fixed;strokeColor=none;fillColor=#000000;" parent="1" vertex="1">
          <mxGeometry x="476" y="-635" width="20" height="20" as="geometry" />
        </mxCell>
        <mxCell id="hybEGSboPCoFTy7mBSYs-13" value="" style="ellipse;whiteSpace=wrap;html=1;aspect=fixed;strokeColor=none;fillColor=#000000;" parent="1" vertex="1">
          <mxGeometry x="346" y="-475" width="20" height="20" as="geometry" />
        </mxCell>
        <mxCell id="hybEGSboPCoFTy7mBSYs-14" value="" style="ellipse;whiteSpace=wrap;html=1;aspect=fixed;strokeColor=none;fillColor=#000000;" parent="1" vertex="1">
          <mxGeometry x="416" y="-955" width="20" height="20" as="geometry" />
        </mxCell>
        <mxCell id="hybEGSboPCoFTy7mBSYs-15" value="" style="ellipse;whiteSpace=wrap;html=1;aspect=fixed;strokeColor=none;fillColor=#000000;" parent="1" vertex="1">
          <mxGeometry x="286" y="-795" width="20" height="20" as="geometry" />
        </mxCell>
        <mxCell id="hybEGSboPCoFTy7mBSYs-16" value="" style="ellipse;whiteSpace=wrap;html=1;aspect=fixed;strokeColor=none;fillColor=#000000;" parent="1" vertex="1">
          <mxGeometry x="166" y="-875" width="20" height="20" as="geometry" />
        </mxCell>
        <mxCell id="hybEGSboPCoFTy7mBSYs-17" value="" style="ellipse;whiteSpace=wrap;html=1;aspect=fixed;strokeColor=none;fillColor=#000000;" parent="1" vertex="1">
          <mxGeometry x="176" y="-725" width="20" height="20" as="geometry" />
        </mxCell>
        <mxCell id="hybEGSboPCoFTy7mBSYs-18" value="" style="endArrow=classicThin;html=1;rounded=0;endFill=1;strokeWidth=3;entryX=0;entryY=0;entryDx=0;entryDy=0;exitX=1;exitY=1;exitDx=0;exitDy=0;jumpStyle=none;jumpSize=21;strokeColor=#737373;" parent="1" source="hybEGSboPCoFTy7mBSYs-1" target="hybEGSboPCoFTy7mBSYs-5" edge="1">
          <mxGeometry width="50" height="50" relative="1" as="geometry">
            <mxPoint x="676" y="-685" as="sourcePoint" />
            <mxPoint x="746" y="-715" as="targetPoint" />
          </mxGeometry>
        </mxCell>
        <mxCell id="hybEGSboPCoFTy7mBSYs-20" value="" style="endArrow=classicThin;html=1;rounded=0;endFill=1;strokeWidth=3;entryX=0;entryY=0.5;entryDx=0;entryDy=0;exitX=1;exitY=0;exitDx=0;exitDy=0;jumpStyle=none;jumpSize=21;strokeColor=#737373;" parent="1" source="hybEGSboPCoFTy7mBSYs-1" target="hybEGSboPCoFTy7mBSYs-6" edge="1">
          <mxGeometry width="50" height="50" relative="1" as="geometry">
            <mxPoint x="663" y="-678" as="sourcePoint" />
            <mxPoint x="829" y="-612" as="targetPoint" />
          </mxGeometry>
        </mxCell>
        <mxCell id="hybEGSboPCoFTy7mBSYs-21" value="" style="endArrow=classicThin;html=1;rounded=0;endFill=1;strokeWidth=3;entryX=0;entryY=1;entryDx=0;entryDy=0;jumpStyle=none;jumpSize=21;strokeColor=#737373;exitX=1;exitY=0;exitDx=0;exitDy=0;" parent="1" source="hybEGSboPCoFTy7mBSYs-6" target="hybEGSboPCoFTy7mBSYs-4" edge="1">
          <mxGeometry width="50" height="50" relative="1" as="geometry">
            <mxPoint x="846" y="-805" as="sourcePoint" />
            <mxPoint x="839" y="-602" as="targetPoint" />
          </mxGeometry>
        </mxCell>
        <mxCell id="hybEGSboPCoFTy7mBSYs-22" value="" style="endArrow=classicThin;html=1;rounded=0;endFill=1;strokeWidth=3;entryX=0;entryY=1;entryDx=0;entryDy=0;exitX=1;exitY=0.5;exitDx=0;exitDy=0;jumpStyle=none;jumpSize=21;strokeColor=#707070;" parent="1" source="hybEGSboPCoFTy7mBSYs-5" target="hybEGSboPCoFTy7mBSYs-7" edge="1">
          <mxGeometry width="50" height="50" relative="1" as="geometry">
            <mxPoint x="683" y="-658" as="sourcePoint" />
            <mxPoint x="849" y="-592" as="targetPoint" />
          </mxGeometry>
        </mxCell>
        <mxCell id="hybEGSboPCoFTy7mBSYs-24" value="" style="endArrow=classicThin;html=1;rounded=0;endFill=1;strokeWidth=3;entryX=0;entryY=0;entryDx=0;entryDy=0;exitX=1;exitY=0.5;exitDx=0;exitDy=0;jumpStyle=none;jumpSize=21;strokeColor=#737373;" parent="1" source="hybEGSboPCoFTy7mBSYs-4" target="hybEGSboPCoFTy7mBSYs-8" edge="1">
          <mxGeometry width="50" height="50" relative="1" as="geometry">
            <mxPoint x="703" y="-638" as="sourcePoint" />
            <mxPoint x="869" y="-572" as="targetPoint" />
          </mxGeometry>
        </mxCell>
        <mxCell id="hybEGSboPCoFTy7mBSYs-25" value="" style="endArrow=classicThin;html=1;rounded=0;endFill=1;strokeWidth=3;entryX=0;entryY=1;entryDx=0;entryDy=0;exitX=1;exitY=0.5;exitDx=0;exitDy=0;jumpStyle=none;jumpSize=21;strokeColor=#737373;" parent="1" source="hybEGSboPCoFTy7mBSYs-7" target="hybEGSboPCoFTy7mBSYs-8" edge="1">
          <mxGeometry width="50" height="50" relative="1" as="geometry">
            <mxPoint x="713" y="-628" as="sourcePoint" />
            <mxPoint x="879" y="-562" as="targetPoint" />
          </mxGeometry>
        </mxCell>
        <mxCell id="hybEGSboPCoFTy7mBSYs-26" value="" style="endArrow=classicThin;html=1;rounded=0;endFill=1;strokeWidth=3;entryX=0;entryY=0.5;entryDx=0;entryDy=0;exitX=1;exitY=1;exitDx=0;exitDy=0;jumpStyle=none;jumpSize=21;strokeColor=#737373;" parent="1" source="hybEGSboPCoFTy7mBSYs-6" target="hybEGSboPCoFTy7mBSYs-7" edge="1">
          <mxGeometry width="50" height="50" relative="1" as="geometry">
            <mxPoint x="723" y="-618" as="sourcePoint" />
            <mxPoint x="889" y="-552" as="targetPoint" />
          </mxGeometry>
        </mxCell>
        <mxCell id="hybEGSboPCoFTy7mBSYs-27" value="" style="endArrow=classicThin;html=1;rounded=0;endFill=1;strokeWidth=3;entryX=0;entryY=0.5;entryDx=0;entryDy=0;exitX=1;exitY=0.5;exitDx=0;exitDy=0;jumpStyle=none;jumpSize=21;strokeColor=#707070;" parent="1" source="hybEGSboPCoFTy7mBSYs-6" target="hybEGSboPCoFTy7mBSYs-8" edge="1">
          <mxGeometry width="50" height="50" relative="1" as="geometry">
            <mxPoint x="733" y="-608" as="sourcePoint" />
            <mxPoint x="899" y="-542" as="targetPoint" />
          </mxGeometry>
        </mxCell>
        <mxCell id="hybEGSboPCoFTy7mBSYs-23" value="" style="endArrow=none;html=1;rounded=0;endFill=0;strokeWidth=12;entryX=0;entryY=0;entryDx=0;entryDy=0;exitX=0.5;exitY=1;exitDx=0;exitDy=0;jumpStyle=none;jumpSize=21;strokeColor=#FFFFFF;" parent="1" source="hybEGSboPCoFTy7mBSYs-4" target="hybEGSboPCoFTy7mBSYs-7" edge="1">
          <mxGeometry width="50" height="50" relative="1" as="geometry">
            <mxPoint x="693" y="-648" as="sourcePoint" />
            <mxPoint x="859" y="-582" as="targetPoint" />
          </mxGeometry>
        </mxCell>
        <mxCell id="hybEGSboPCoFTy7mBSYs-28" value="" style="endArrow=classicThin;html=1;rounded=0;endFill=1;strokeWidth=3;entryX=0;entryY=0;entryDx=0;entryDy=0;jumpStyle=none;jumpSize=21;strokeColor=#737373;" parent="1" target="hybEGSboPCoFTy7mBSYs-7" edge="1">
          <mxGeometry width="50" height="50" relative="1" as="geometry">
            <mxPoint x="956" y="-795" as="sourcePoint" />
            <mxPoint x="1159" y="-572" as="targetPoint" />
          </mxGeometry>
        </mxCell>
        <mxCell id="hybEGSboPCoFTy7mBSYs-29" value="" style="endArrow=classicThin;html=1;rounded=0;endFill=1;strokeWidth=3;entryX=0.5;entryY=0;entryDx=0;entryDy=0;exitX=0.5;exitY=1;exitDx=0;exitDy=0;jumpStyle=none;jumpSize=21;strokeColor=#707070;" parent="1" source="hybEGSboPCoFTy7mBSYs-1" target="hybEGSboPCoFTy7mBSYs-11" edge="1">
          <mxGeometry width="50" height="50" relative="1" as="geometry">
            <mxPoint x="663" y="-678" as="sourcePoint" />
            <mxPoint x="829" y="-612" as="targetPoint" />
          </mxGeometry>
        </mxCell>
        <mxCell id="hybEGSboPCoFTy7mBSYs-30" value="" style="endArrow=classicThin;html=1;rounded=0;endFill=1;strokeWidth=3;entryX=0;entryY=0;entryDx=0;entryDy=0;exitX=1;exitY=1;exitDx=0;exitDy=0;jumpStyle=none;jumpSize=21;strokeColor=#737373;" parent="1" source="hybEGSboPCoFTy7mBSYs-12" target="hybEGSboPCoFTy7mBSYs-11" edge="1">
          <mxGeometry width="50" height="50" relative="1" as="geometry">
            <mxPoint x="673" y="-668" as="sourcePoint" />
            <mxPoint x="839" y="-602" as="targetPoint" />
          </mxGeometry>
        </mxCell>
        <mxCell id="hybEGSboPCoFTy7mBSYs-31" value="" style="endArrow=classicThin;html=1;rounded=0;endFill=1;strokeWidth=3;entryX=0.5;entryY=0;entryDx=0;entryDy=0;exitX=0.5;exitY=1;exitDx=0;exitDy=0;jumpStyle=none;jumpSize=21;strokeColor=#707070;" parent="1" source="hybEGSboPCoFTy7mBSYs-12" target="hybEGSboPCoFTy7mBSYs-10" edge="1">
          <mxGeometry width="50" height="50" relative="1" as="geometry">
            <mxPoint x="683" y="-658" as="sourcePoint" />
            <mxPoint x="849" y="-592" as="targetPoint" />
          </mxGeometry>
        </mxCell>
        <mxCell id="hybEGSboPCoFTy7mBSYs-32" value="" style="endArrow=classicThin;html=1;rounded=0;endFill=1;strokeWidth=3;entryX=1;entryY=0;entryDx=0;entryDy=0;exitX=0;exitY=1;exitDx=0;exitDy=0;jumpStyle=none;jumpSize=21;strokeColor=#737373;" parent="1" source="hybEGSboPCoFTy7mBSYs-12" target="hybEGSboPCoFTy7mBSYs-13" edge="1">
          <mxGeometry width="50" height="50" relative="1" as="geometry">
            <mxPoint x="693" y="-648" as="sourcePoint" />
            <mxPoint x="859" y="-582" as="targetPoint" />
          </mxGeometry>
        </mxCell>
        <mxCell id="hybEGSboPCoFTy7mBSYs-33" value="" style="endArrow=classicThin;html=1;rounded=0;endFill=1;strokeWidth=3;entryX=0;entryY=0.5;entryDx=0;entryDy=0;exitX=1;exitY=0.5;exitDx=0;exitDy=0;jumpStyle=none;jumpSize=21;strokeColor=#737373;" parent="1" source="hybEGSboPCoFTy7mBSYs-13" target="hybEGSboPCoFTy7mBSYs-10" edge="1">
          <mxGeometry width="50" height="50" relative="1" as="geometry">
            <mxPoint x="703" y="-638" as="sourcePoint" />
            <mxPoint x="869" y="-572" as="targetPoint" />
          </mxGeometry>
        </mxCell>
        <mxCell id="hybEGSboPCoFTy7mBSYs-34" value="" style="endArrow=classicThin;html=1;rounded=0;endFill=1;strokeWidth=3;entryX=0;entryY=1;entryDx=0;entryDy=0;exitX=1;exitY=0.5;exitDx=0;exitDy=0;jumpStyle=none;jumpSize=21;strokeColor=#737373;" parent="1" source="hybEGSboPCoFTy7mBSYs-10" target="hybEGSboPCoFTy7mBSYs-11" edge="1">
          <mxGeometry width="50" height="50" relative="1" as="geometry">
            <mxPoint x="713" y="-628" as="sourcePoint" />
            <mxPoint x="879" y="-562" as="targetPoint" />
          </mxGeometry>
        </mxCell>
        <mxCell id="hybEGSboPCoFTy7mBSYs-35" value="" style="endArrow=classicThin;html=1;rounded=0;endFill=1;strokeWidth=3;exitX=1;exitY=1;exitDx=0;exitDy=0;jumpStyle=none;jumpSize=21;strokeColor=#737373;entryX=0;entryY=0;entryDx=0;entryDy=0;" parent="1" source="hybEGSboPCoFTy7mBSYs-9" target="hybEGSboPCoFTy7mBSYs-1" edge="1">
          <mxGeometry width="50" height="50" relative="1" as="geometry">
            <mxPoint x="663" y="-678" as="sourcePoint" />
            <mxPoint x="626" y="-798" as="targetPoint" />
          </mxGeometry>
        </mxCell>
        <mxCell id="hybEGSboPCoFTy7mBSYs-36" value="" style="endArrow=classicThin;html=1;rounded=0;endFill=1;strokeWidth=3;entryX=0.5;entryY=1;entryDx=0;entryDy=0;exitX=0.5;exitY=0;exitDx=0;exitDy=0;jumpStyle=none;jumpSize=21;strokeColor=#737373;" parent="1" source="hybEGSboPCoFTy7mBSYs-9" target="hybEGSboPCoFTy7mBSYs-14" edge="1">
          <mxGeometry width="50" height="50" relative="1" as="geometry">
            <mxPoint x="673" y="-668" as="sourcePoint" />
            <mxPoint x="839" y="-602" as="targetPoint" />
          </mxGeometry>
        </mxCell>
        <mxCell id="hybEGSboPCoFTy7mBSYs-37" value="" style="endArrow=classicThin;html=1;rounded=0;endFill=1;strokeWidth=3;entryX=1;entryY=0.5;entryDx=0;entryDy=0;exitX=0;exitY=0.5;exitDx=0;exitDy=0;jumpStyle=none;jumpSize=21;strokeColor=#707070;fontColor=#FF330A;" parent="1" source="hybEGSboPCoFTy7mBSYs-9" target="hybEGSboPCoFTy7mBSYs-15" edge="1">
          <mxGeometry width="50" height="50" relative="1" as="geometry">
            <mxPoint x="683" y="-658" as="sourcePoint" />
            <mxPoint x="849" y="-592" as="targetPoint" />
          </mxGeometry>
        </mxCell>
        <mxCell id="hybEGSboPCoFTy7mBSYs-38" value="" style="endArrow=classicThin;html=1;rounded=0;endFill=1;strokeWidth=3;entryX=1;entryY=1;entryDx=0;entryDy=0;exitX=0;exitY=0;exitDx=0;exitDy=0;jumpStyle=none;jumpSize=21;strokeColor=#737373;" parent="1" source="hybEGSboPCoFTy7mBSYs-15" target="hybEGSboPCoFTy7mBSYs-16" edge="1">
          <mxGeometry width="50" height="50" relative="1" as="geometry">
            <mxPoint x="693" y="-648" as="sourcePoint" />
            <mxPoint x="859" y="-582" as="targetPoint" />
          </mxGeometry>
        </mxCell>
        <mxCell id="hybEGSboPCoFTy7mBSYs-39" value="" style="endArrow=classicThin;html=1;rounded=0;endFill=1;strokeWidth=3;entryX=1;entryY=0;entryDx=0;entryDy=0;exitX=0;exitY=1;exitDx=0;exitDy=0;jumpStyle=none;jumpSize=21;strokeColor=#737373;" parent="1" source="hybEGSboPCoFTy7mBSYs-15" target="hybEGSboPCoFTy7mBSYs-17" edge="1">
          <mxGeometry width="50" height="50" relative="1" as="geometry">
            <mxPoint x="703" y="-638" as="sourcePoint" />
            <mxPoint x="869" y="-572" as="targetPoint" />
          </mxGeometry>
        </mxCell>
        <mxCell id="hybEGSboPCoFTy7mBSYs-128" value="" style="ellipse;whiteSpace=wrap;html=1;aspect=fixed;strokeColor=none;fillColor=#000000;" parent="1" vertex="1">
          <mxGeometry x="1914" y="-665" width="20" height="20" as="geometry" />
        </mxCell>
        <mxCell id="hybEGSboPCoFTy7mBSYs-131" value="" style="ellipse;whiteSpace=wrap;html=1;aspect=fixed;strokeColor=none;fillColor=#000000;" parent="1" vertex="1">
          <mxGeometry x="1794" y="-775" width="20" height="20" as="geometry" />
        </mxCell>
        <mxCell id="hybEGSboPCoFTy7mBSYs-132" value="" style="ellipse;whiteSpace=wrap;html=1;aspect=fixed;strokeColor=none;fillColor=#000000;" parent="1" vertex="1">
          <mxGeometry x="1794" y="-605" width="20" height="20" as="geometry" />
        </mxCell>
        <mxCell id="hybEGSboPCoFTy7mBSYs-135" value="" style="ellipse;whiteSpace=wrap;html=1;aspect=fixed;strokeColor=none;fillColor=#000000;" parent="1" vertex="1">
          <mxGeometry x="1674" y="-855" width="20" height="20" as="geometry" />
        </mxCell>
        <mxCell id="hybEGSboPCoFTy7mBSYs-136" value="" style="ellipse;whiteSpace=wrap;html=1;aspect=fixed;strokeColor=none;fillColor=#000000;" parent="1" vertex="1">
          <mxGeometry x="1684" y="-705" width="20" height="20" as="geometry" />
        </mxCell>
        <mxCell id="hybEGSboPCoFTy7mBSYs-139" value="" style="endArrow=classicThin;html=1;rounded=0;endFill=1;strokeWidth=3;entryX=0;entryY=1;entryDx=0;entryDy=0;exitX=1;exitY=0.5;exitDx=0;exitDy=0;jumpStyle=none;jumpSize=21;strokeColor=#737373;" parent="1" source="hybEGSboPCoFTy7mBSYs-132" edge="1">
          <mxGeometry width="50" height="50" relative="1" as="geometry">
            <mxPoint x="2021" y="-748" as="sourcePoint" />
            <mxPoint x="1916.9289321881502" y="-647.9289321881502" as="targetPoint" />
          </mxGeometry>
        </mxCell>
        <mxCell id="hybEGSboPCoFTy7mBSYs-140" value="" style="endArrow=classicThin;html=1;rounded=0;endFill=1;strokeWidth=3;exitX=1;exitY=1;exitDx=0;exitDy=0;jumpStyle=none;jumpSize=21;strokeColor=#707070;entryX=0;entryY=0;entryDx=0;entryDy=0;" parent="1" source="hybEGSboPCoFTy7mBSYs-131" target="hybEGSboPCoFTy7mBSYs-128" edge="1">
          <mxGeometry width="50" height="50" relative="1" as="geometry">
            <mxPoint x="1941" y="-638" as="sourcePoint" />
            <mxPoint x="1904" y="-758" as="targetPoint" />
          </mxGeometry>
        </mxCell>
        <mxCell id="hybEGSboPCoFTy7mBSYs-142" value="" style="endArrow=classicThin;html=1;rounded=0;endFill=1;strokeWidth=3;entryX=1;entryY=1;entryDx=0;entryDy=0;exitX=0;exitY=0;exitDx=0;exitDy=0;jumpStyle=none;jumpSize=21;strokeColor=#737373;" parent="1" target="hybEGSboPCoFTy7mBSYs-135" edge="1">
          <mxGeometry width="50" height="50" relative="1" as="geometry">
            <mxPoint x="1796.9289321881342" y="-772.0710678118655" as="sourcePoint" />
            <mxPoint x="2367" y="-562" as="targetPoint" />
          </mxGeometry>
        </mxCell>
        <mxCell id="hybEGSboPCoFTy7mBSYs-143" value="" style="endArrow=classicThin;html=1;rounded=0;endFill=1;strokeWidth=3;entryX=1;entryY=0;entryDx=0;entryDy=0;exitX=0;exitY=1;exitDx=0;exitDy=0;jumpStyle=none;jumpSize=21;strokeColor=#707070;" parent="1" target="hybEGSboPCoFTy7mBSYs-136" edge="1">
          <mxGeometry width="50" height="50" relative="1" as="geometry">
            <mxPoint x="1796.9289321881342" y="-757.9289321881345" as="sourcePoint" />
            <mxPoint x="2377" y="-552" as="targetPoint" />
          </mxGeometry>
        </mxCell>
        <mxCell id="hybEGSboPCoFTy7mBSYs-157" value="" style="ellipse;whiteSpace=wrap;html=1;aspect=fixed;strokeColor=none;fillColor=#000000;" parent="1" vertex="1">
          <mxGeometry x="2094" y="-735" width="20" height="20" as="geometry" />
        </mxCell>
        <mxCell id="hybEGSboPCoFTy7mBSYs-159" value="" style="curved=1;endArrow=classicThin;html=1;rounded=0;exitX=0;exitY=0.5;exitDx=0;exitDy=0;entryX=1;entryY=0;entryDx=0;entryDy=0;strokeWidth=3;strokeColor=#737373;endFill=1;" parent="1" source="hybEGSboPCoFTy7mBSYs-157" edge="1">
          <mxGeometry width="50" height="50" relative="1" as="geometry">
            <mxPoint x="2071" y="-785" as="sourcePoint" />
            <mxPoint x="1931.0710678118658" y="-662.0710678118653" as="targetPoint" />
            <Array as="points">
              <mxPoint x="2014" y="-715" />
            </Array>
          </mxGeometry>
        </mxCell>
        <mxCell id="hybEGSboPCoFTy7mBSYs-160" value="" style="curved=1;endArrow=none;html=1;rounded=0;strokeWidth=3;strokeColor=#737373;endFill=0;startArrow=classicThin;startFill=1;exitX=0;exitY=1;exitDx=0;exitDy=0;entryX=1;entryY=0.5;entryDx=0;entryDy=0;" parent="1" source="hybEGSboPCoFTy7mBSYs-157" edge="1">
          <mxGeometry width="50" height="50" relative="1" as="geometry">
            <mxPoint x="2074" y="-778" as="sourcePoint" />
            <mxPoint x="1934" y="-655" as="targetPoint" />
            <Array as="points">
              <mxPoint x="2054" y="-675" />
            </Array>
          </mxGeometry>
        </mxCell>
        <mxCell id="hybEGSboPCoFTy7mBSYs-185" value="" style="ellipse;whiteSpace=wrap;html=1;aspect=fixed;strokeColor=none;fillColor=#000000;" parent="1" vertex="1">
          <mxGeometry x="2787" y="-710" width="20" height="20" as="geometry" />
        </mxCell>
        <mxCell id="hybEGSboPCoFTy7mBSYs-186" value="" style="ellipse;whiteSpace=wrap;html=1;aspect=fixed;strokeColor=none;fillColor=#000000;" parent="1" vertex="1">
          <mxGeometry x="2787" y="-710" width="20" height="20" as="geometry" />
        </mxCell>
        <mxCell id="hybEGSboPCoFTy7mBSYs-187" value="" style="ellipse;whiteSpace=wrap;html=1;aspect=fixed;strokeColor=none;fillColor=#000000;" parent="1" vertex="1">
          <mxGeometry x="2667" y="-650" width="20" height="20" as="geometry" />
        </mxCell>
        <mxCell id="hybEGSboPCoFTy7mBSYs-188" value="" style="ellipse;whiteSpace=wrap;html=1;aspect=fixed;strokeColor=none;fillColor=#000000;" parent="1" vertex="1">
          <mxGeometry x="2667" y="-790" width="20" height="20" as="geometry" />
        </mxCell>
        <mxCell id="hybEGSboPCoFTy7mBSYs-189" value="" style="endArrow=classicThin;html=1;rounded=0;endFill=1;strokeWidth=3;entryX=0;entryY=1;entryDx=0;entryDy=0;exitX=1;exitY=0.5;exitDx=0;exitDy=0;jumpStyle=none;jumpSize=21;strokeColor=#737373;" parent="1" source="hybEGSboPCoFTy7mBSYs-187" edge="1">
          <mxGeometry width="50" height="50" relative="1" as="geometry">
            <mxPoint x="2894" y="-793" as="sourcePoint" />
            <mxPoint x="2789.92893218815" y="-692.9289321881502" as="targetPoint" />
          </mxGeometry>
        </mxCell>
        <mxCell id="hybEGSboPCoFTy7mBSYs-190" value="" style="endArrow=classicThin;html=1;rounded=0;endFill=1;strokeWidth=3;entryX=1;entryY=1;entryDx=0;entryDy=0;exitX=0;exitY=0;exitDx=0;exitDy=0;jumpStyle=none;jumpSize=21;strokeColor=#707070;" parent="1" target="hybEGSboPCoFTy7mBSYs-188" edge="1">
          <mxGeometry width="50" height="50" relative="1" as="geometry">
            <mxPoint x="2789.9289321881342" y="-707.0710678118655" as="sourcePoint" />
            <mxPoint x="3360" y="-497" as="targetPoint" />
          </mxGeometry>
        </mxCell>
        <mxCell id="hybEGSboPCoFTy7mBSYs-212" value="" style="endArrow=open;html=1;rounded=0;endFill=0;strokeWidth=3;endSize=25;" parent="1" edge="1">
          <mxGeometry width="50" height="50" relative="1" as="geometry">
            <mxPoint x="2255" y="-705" as="sourcePoint" />
            <mxPoint x="2573" y="-705" as="targetPoint" />
          </mxGeometry>
        </mxCell>
        <mxCell id="1cb2fhuSVc8_OCRmDmwJ-1" value="" style="endArrow=open;html=1;rounded=0;endFill=0;strokeWidth=3;endSize=25;" edge="1" parent="1">
          <mxGeometry width="50" height="50" relative="1" as="geometry">
            <mxPoint x="1217" y="-710" as="sourcePoint" />
            <mxPoint x="1535" y="-710" as="targetPoint" />
          </mxGeometry>
        </mxCell>
      </root>
    </mxGraphModel>
  </diagram>
</mxfile>
